<svg width="44" height="44" viewBox="0 0 44 44" fill="none" xmlns="http://www.w3.org/2000/svg">
    <rect width="44" height="44" rx="22" fill="#F9F9F9"/>
    <path d="M15 32c-.55 0-1.02-.196-1.412-.587A1.926 1.926 0 0 1 13 30V18.725c-.3-.183-.542-.42-.725-.713A1.863 1.863 0 0 1 12 17v-3c0-.55.196-1.02.588-1.412A1.926 1.926 0 0 1 14 12h16c.55 0 1.02.196 1.413.588.391.391.587.862.587 1.412v3c0 .383-.092.72-.275 1.012-.183.292-.425.53-.725.713V30c0 .55-.196 1.02-.587 1.413A1.926 1.926 0 0 1 29 32H15zm-1-15h16v-3H14v3zm5 7h6v-2h-6v2z" fill="#A2CAEE"/>
</svg>
