<svg width="44" height="44" viewBox="0 0 44 44" fill="none" xmlns="http://www.w3.org/2000/svg">
    <rect width="44" height="44" rx="8" fill="#DFDFDF"/>
    <path d="M17 23.667c-.459 0-.851-.163-1.177-.49a1.605 1.605 0 0 1-.49-1.177c0-.458.163-.85.49-1.177.326-.326.718-.49 1.177-.49.458 0 .85.164 1.177.49.326.326.49.719.49 1.177 0 .459-.164.85-.49 1.177-.327.327-.719.49-1.177.49zm5 0c-.459 0-.851-.163-1.177-.49a1.605 1.605 0 0 1-.49-1.177c0-.458.163-.85.49-1.177.326-.326.718-.49 1.177-.49.458 0 .85.164 1.177.49.326.326.49.719.49 1.177 0 .459-.164.85-.49 1.177-.327.327-.719.49-1.177.49zm5 0c-.459 0-.851-.163-1.177-.49a1.605 1.605 0 0 1-.49-1.177c0-.458.163-.85.49-1.177.326-.326.718-.49 1.177-.49.458 0 .85.164 1.177.49.326.326.49.719.49 1.177 0 .459-.164.85-.49 1.177-.327.327-.719.49-1.177.49z" fill="#1A1A1A"/>
</svg>
