<svg width="32" height="32" viewBox="0 0 32 32" fill="none" xmlns="http://www.w3.org/2000/svg">
    <rect x=".25" y=".25" width="31.5" height="31.5" rx="15.75" fill="url(#ihg96ac8ia)"/>
    <rect x=".25" y=".25" width="31.5" height="31.5" rx="15.75" stroke="#fff" stroke-width=".5"/>
    <path d="m19.024 19.837 1.151-1.151-3.363-3.363v-4.74h-1.625V16l3.837 3.837zM16 24.667a8.437 8.437 0 0 1-3.367-.677 8.748 8.748 0 0 1-2.76-1.862 8.739 8.739 0 0 1-1.863-2.764 8.47 8.47 0 0 1-.677-3.374c0-1.197.226-2.322.677-3.375A8.603 8.603 0 0 1 9.872 9.86a8.834 8.834 0 0 1 2.764-1.85 8.47 8.47 0 0 1 3.374-.677 8.42 8.42 0 0 1 3.375.682 8.744 8.744 0 0 1 2.75 1.852 8.754 8.754 0 0 1 1.85 2.752 8.445 8.445 0 0 1 .681 3.38 8.439 8.439 0 0 1-.677 3.367 8.846 8.846 0 0 1-1.85 2.76 8.593 8.593 0 0 1-2.757 1.863 8.509 8.509 0 0 1-3.382.677z" fill="#fff"/>
    <defs>
        <linearGradient id="ihg96ac8ia" x1="32" y1="0" x2="-19.341" y2="17.191" gradientUnits="userSpaceOnUse">
            <stop stop-color="#3D2FDE"/>
            <stop offset="1" stop-color="#C71DD8"/>
        </linearGradient>
    </defs>
</svg>
