<svg width="32" height="32" viewBox="0 0 32 32" fill="none" xmlns="http://www.w3.org/2000/svg">
<rect width="32" height="32" rx="16" fill="#F9F9F9"/>
<path d="M17.3586 16L20.5202 12.8384C20.7005 12.6581 20.8018 12.4135 20.8018 12.1584C20.8018 11.9034 20.7005 11.6588 20.5202 11.4784C20.3398 11.2981 20.0952 11.1968 19.8402 11.1968C19.5851 11.1968 19.3405 11.2981 19.1602 11.4784L15.9986 14.64L12.837 11.4816C12.6566 11.3013 12.412 11.2 12.157 11.2C11.9019 11.2 11.6573 11.3013 11.477 11.4816C11.2966 11.662 11.1953 11.9066 11.1953 12.1616C11.1953 12.4167 11.2966 12.6613 11.477 12.8416L14.6386 16L11.4802 19.1616C11.3909 19.2509 11.32 19.357 11.2717 19.4736C11.2234 19.5903 11.1985 19.7154 11.1985 19.8416C11.1985 19.9679 11.2234 20.093 11.2717 20.2097C11.32 20.3263 11.3909 20.4323 11.4802 20.5216C11.5695 20.6109 11.6755 20.6818 11.7922 20.7301C11.9088 20.7784 12.0339 20.8033 12.1602 20.8033C12.2865 20.8033 12.4115 20.7784 12.5282 20.7301C12.6449 20.6818 12.7509 20.6109 12.8402 20.5216L15.9986 17.36L19.1602 20.5216C19.3405 20.702 19.5851 20.8033 19.8402 20.8033C20.0952 20.8033 20.3398 20.702 20.5202 20.5216C20.7005 20.3413 20.8018 20.0967 20.8018 19.8416C20.8018 19.5866 20.7005 19.342 20.5202 19.1616L17.3586 16Z" fill="#CBCBCB" stroke="#CBCBCB" stroke-width="0.5"/>
</svg>
