<svg width="16" height="11" viewBox="0 0 16 11" fill="none" xmlns="http://www.w3.org/2000/svg">
<path d="M8.00033 8.1665C8.83366 8.1665 9.54199 7.87484 10.1253 7.2915C10.7087 6.70817 11.0003 5.99984 11.0003 5.1665C11.0003 4.33317 10.7087 3.62484 10.1253 3.0415C9.54199 2.45817 8.83366 2.1665 8.00033 2.1665C7.16699 2.1665 6.45866 2.45817 5.87533 3.0415C5.29199 3.62484 5.00033 4.33317 5.00033 5.1665C5.00033 5.99984 5.29199 6.70817 5.87533 7.2915C6.45866 7.87484 7.16699 8.1665 8.00033 8.1665ZM8.00033 6.9665C7.50033 6.9665 7.07533 6.7915 6.72533 6.4415C6.37533 6.0915 6.20033 5.6665 6.20033 5.1665C6.20033 4.6665 6.37533 4.2415 6.72533 3.8915C7.07533 3.5415 7.50033 3.3665 8.00033 3.3665C8.50033 3.3665 8.92533 3.5415 9.27533 3.8915C9.62533 4.2415 9.80033 4.6665 9.80033 5.1665C9.80033 5.6665 9.62533 6.0915 9.27533 6.4415C8.92533 6.7915 8.50033 6.9665 8.00033 6.9665ZM8.00033 10.1665C6.3781 10.1665 4.90033 9.71373 3.56699 8.80817C2.23366 7.90262 1.26699 6.68873 0.666992 5.1665C1.26699 3.64428 2.23366 2.43039 3.56699 1.52484C4.90033 0.619282 6.3781 0.166504 8.00033 0.166504C9.62255 0.166504 11.1003 0.619282 12.4337 1.52484C13.767 2.43039 14.7337 3.64428 15.3337 5.1665C14.7337 6.68873 13.767 7.90262 12.4337 8.80817C11.1003 9.71373 9.62255 10.1665 8.00033 10.1665Z" fill="#3D2FDC"/>
</svg>
