<svg xmlns="http://www.w3.org/2000/svg" width="512" height="512" viewBox="0 0 512 512">
<g>
<path d="M 35.11 510.42 C22.58,507.05 11.07,497.99 5.59,487.18 C-0.27,475.61 0.00,483.41 0.00,326.34 C-0.00,225.17 0.33,180.52 1.10,176.80 C3.55,165.02 12.30,152.64 22.64,146.33 C31.52,140.91 37.25,140.00 62.69,140.00 L 86.18 140.00 L 202.84 72.10 C267.00,34.76 321.75,3.44 324.50,2.50 C335.65,-1.31 348.63,-0.39 359.65,5.01 C371.61,10.87 373.27,13.27 411.03,79.15 L 445.56 139.39 L 452.10 141.04 C465.87,144.51 477.74,153.63 483.63,165.26 C488.41,174.68 488.96,180.46 488.98,220.73 L 489.00 257.96 L 492.75 259.89 C499.48,263.36 504.78,268.80 508.21,275.77 L 511.50 282.46 L 511.50 325.98 C511.50,368.67 511.46,369.59 509.31,374.25 C506.49,380.35 498.14,389.18 493.00,391.50 L 489.00 393.30 L 489.00 430.47 C489.00,452.84 488.57,469.99 487.92,473.57 C484.69,491.23 470.99,505.90 453.47,510.47 C448.27,511.82 423.82,511.99 244.04,511.93 C69.60,511.88 39.73,511.66 35.11,510.42 ZM 453.55 485.48 C456.24,483.81 459.80,480.51 461.47,478.14 L 464.50 473.83 L 464.78 434.99 L 465.07 396.16 L 424.78 395.75 C386.59,395.37 384.11,395.23 377.02,393.10 C354.69,386.42 336.73,369.32 329.55,347.90 C325.80,336.74 325.00,322.62 327.48,311.36 C332.98,286.37 350.66,267.05 375.50,258.87 C382.27,256.64 383.86,256.56 423.75,256.22 L 465.00 255.88 L 464.98 218.19 C464.96,183.89 464.79,180.14 463.13,176.50 C460.79,171.36 454.20,165.43 449.32,164.07 C446.69,163.34 382.81,163.01 243.45,163.01 L 41.39 163.00 L 36.23 165.57 C29.91,168.72 25.47,174.46 23.98,181.39 C23.21,185.00 22.98,228.29 23.19,329.00 C23.49,465.80 23.57,471.64 25.36,475.00 C29.01,481.85 34.60,486.38 41.50,488.07 C43.15,488.48 135.44,488.74 246.58,488.65 L 448.66 488.50 L 453.55 485.48 ZM 482.91 370.54 C488.77,367.52 489.00,365.84 489.00,325.85 C489.00,285.08 488.86,284.18 482.00,280.75 C478.83,279.17 474.46,279.00 435.93,279.00 C409.67,279.00 391.09,279.42 387.43,280.08 C362.93,284.56 345.65,308.82 349.78,332.95 C351.39,342.30 355.26,350.08 361.83,357.19 C368.03,363.87 373.53,367.42 381.80,370.07 C386.97,371.72 391.84,371.90 433.80,371.95 C472.45,371.99 480.56,371.76 482.91,370.54 ZM 268.00 87.87 C317.23,59.22 357.86,35.45 358.29,35.05 C358.73,34.65 357.21,32.44 354.91,30.15 C349.41,24.65 341.78,22.24 334.88,23.84 C331.69,24.58 298.49,43.35 232.82,81.57 C179.30,112.72 135.07,138.61 134.55,139.10 C133.99,139.63 142.75,139.99 156.05,139.99 L 178.50 139.97 L 268.00 87.87 ZM 324.03 108.91 C353.44,91.80 378.49,77.19 379.69,76.42 L 381.89 75.03 L 376.21 65.10 C373.09,59.64 370.30,55.30 370.02,55.46 C359.03,61.65 227.20,138.54 226.55,139.13 C226.01,139.63 235.30,140.00 248.08,140.00 L 270.55 140.00 L 324.03 108.91 ZM 418.00 139.11 C418.00,138.62 412.55,128.69 405.89,117.05 C396.42,100.49 393.42,96.01 392.17,96.49 C390.17,97.25 319.86,138.02 318.55,139.16 C318.03,139.62 340.19,140.00 367.80,140.00 C396.39,140.00 418.00,139.62 418.00,139.11 ZM 386.50 347.04 C375.42,341.75 370.16,330.81 373.39,319.77 C376.45,309.30 384.70,303.00 395.35,303.00 C407.74,303.00 416.94,311.01 418.62,323.26 C420.96,340.32 401.92,354.42 386.50,347.04 Z" fill="rgba(68,101,195,1)"/>
</g>
</svg>