<svg width="58" height="104" viewBox="0 0 58 104" fill="none" xmlns="http://www.w3.org/2000/svg">
<path d="M0 26.8918V33.6009V40.2554L12.0113 33.6009L0 26.8918Z" fill="url(#paint0_linear_1117_3175)"/>
<path d="M57.9402 77.0182V63.6547L45.929 70.3637L57.9402 77.0182Z" fill="url(#paint1_linear_1117_3175)"/>
<path d="M17.7725 33.5981L0 43.8527V45.2163V58.6889V67.1435L37.8275 45.2163L17.7725 33.5981Z" fill="url(#paint2_linear_1117_3175)"/>
<path d="M57.9368 33.5999L0 0V23.2908L17.7725 33.5999L37.8275 45.2179L57.9368 33.5999Z" fill="url(#paint3_linear_1117_3175)"/>
<path d="M20.0543 58.69L40.1638 70.3627L57.9361 60.0538V58.69V45.2174V36.7629L20.0543 58.69Z" fill="url(#paint4_linear_1117_3175)"/>
<path d="M20.055 58.6897L0 70.3624L57.9368 103.908V80.6167L40.1645 70.3624L20.055 58.6897Z" fill="url(#paint5_linear_1117_3175)"/>
<defs>
<linearGradient id="paint0_linear_1117_3175" x1="17.4758" y1="28.9373" x2="-2.63933" y2="34.7224" gradientUnits="userSpaceOnUse">
<stop stop-color="#00A79D"/>
<stop offset="1" stop-color="#005858"/>
</linearGradient>
<linearGradient id="paint1_linear_1117_3175" x1="42.0263" y1="75.2706" x2="66.5194" y2="67.4348" gradientUnits="userSpaceOnUse">
<stop stop-color="#00A79D"/>
<stop offset="1" stop-color="#005858"/>
</linearGradient>
<linearGradient id="paint2_linear_1117_3175" x1="22.8436" y1="47.147" x2="2.72859" y2="52.9321" gradientUnits="userSpaceOnUse">
<stop stop-color="#00A79D"/>
<stop offset="1" stop-color="#005858"/>
</linearGradient>
<linearGradient id="paint3_linear_1117_3175" x1="4.44582" y1="21.8072" x2="62.3827" y2="21.8072" gradientUnits="userSpaceOnUse">
<stop stop-color="#005858"/>
<stop offset="1" stop-color="#00A79D"/>
</linearGradient>
<linearGradient id="paint4_linear_1117_3175" x1="36.521" y1="58.0742" x2="61.0143" y2="50.2384" gradientUnits="userSpaceOnUse">
<stop stop-color="#00A79D"/>
<stop offset="1" stop-color="#005858"/>
</linearGradient>
<linearGradient id="paint5_linear_1117_3175" x1="56.752" y1="81.3695" x2="-1.18481" y2="81.3695" gradientUnits="userSpaceOnUse">
<stop stop-color="#00A79D"/>
<stop offset="1" stop-color="#005858"/>
</linearGradient>
</defs>
</svg>
