<svg width="24" height="24" viewBox="0 0 24 24" fill="none" xmlns="http://www.w3.org/2000/svg">
    <path d="M13.667 14.5a.84.84 0 0 0 .615-.26.84.84 0 0 0 .26-.615.84.84 0 0 0-.26-.615.84.84 0 0 0-.615-.26.84.84 0 0 0-.615.26.84.84 0 0 0-.26.615.84.84 0 0 0 .26.614.84.84 0 0 0 .615.26zm-.625-2.667h1.25c0-.403.042-.698.125-.885.083-.188.278-.434.583-.74.417-.417.695-.753.834-1.01s.208-.56.208-.907c0-.625-.219-1.135-.656-1.53-.438-.397-1.01-.595-1.719-.595-.57 0-1.066.16-1.49.48-.423.32-.718.743-.885 1.27l1.125.459c.125-.347.295-.608.51-.781.216-.174.462-.26.74-.26.333 0 .604.093.813.28.208.188.312.441.312.76 0 .195-.056.38-.167.553-.11.174-.305.392-.583.656-.458.403-.74.719-.844.948-.104.23-.156.663-.156 1.302zM8.667 17c-.458 0-.85-.163-1.177-.49A1.605 1.605 0 0 1 7 15.333v-10c0-.458.164-.85.49-1.177.326-.326.719-.49 1.177-.49h10c.458 0 .85.164 1.177.49.326.326.49.719.49 1.177v10c0 .458-.163.85-.49 1.177-.326.327-.719.49-1.177.49h-10zm0-1.667h10v-10h-10v10zm-3.333 5c-.459 0-.851-.163-1.177-.49a1.605 1.605 0 0 1-.49-1.177V7h1.667v11.666H17v1.667H5.334z" fill="#fff"/>
</svg>
