<svg width="44" height="44" viewBox="0 0 44 44" fill="none" xmlns="http://www.w3.org/2000/svg">
    <rect width="44" height="44" rx="22" fill="#F9F9F9"/>
    <path d="m25.257 26.132 1.24-1.24-3.622-3.621v-5.104h-1.75V22l4.132 4.132zM22 31.333a9.084 9.084 0 0 1-3.626-.729A9.421 9.421 0 0 1 15.4 28.6a9.41 9.41 0 0 1-2.005-2.976 9.122 9.122 0 0 1-.73-3.634c0-1.289.244-2.5.73-3.635A9.264 9.264 0 0 1 15.4 15.39a9.513 9.513 0 0 1 2.976-1.993 9.122 9.122 0 0 1 3.634-.73c1.289 0 2.5.246 3.635.736a9.416 9.416 0 0 1 2.96 1.995A9.428 9.428 0 0 1 30.6 18.36a9.096 9.096 0 0 1 .734 3.64 9.086 9.086 0 0 1-.729 3.626 9.525 9.525 0 0 1-1.993 2.973 9.253 9.253 0 0 1-2.969 2.005 9.162 9.162 0 0 1-3.642.73z" fill="#CC9B9B"/>
</svg>
