<svg width="20" height="21" viewBox="0 0 20 21" fill="none" xmlns="http://www.w3.org/2000/svg">
    <path d="M6 17.166c-.367 0-.68-.13-.942-.391a1.284 1.284 0 0 1-.391-.942V9.166c0-.366.13-.68.391-.941.261-.261.575-.392.942-.392h.667V6.5c0-.922.325-1.708.974-2.359A3.213 3.213 0 0 1 10 3.167c.922 0 1.708.325 2.358.974.65.65.975 1.437.975 2.359v1.333H14c.367 0 .68.13.941.392.262.261.392.575.392.941v6.667c0 .367-.13.68-.392.942a1.284 1.284 0 0 1-.941.392H6zm4-3.333c.367 0 .68-.13.941-.392.262-.26.392-.575.392-.941 0-.367-.13-.68-.392-.942a1.284 1.284 0 0 0-.941-.392c-.367 0-.68.131-.942.392a1.284 1.284 0 0 0-.392.942c0 .367.131.68.392.941.261.262.575.392.942.392zm-2-6h4V6.5c0-.556-.195-1.028-.584-1.417A1.929 1.929 0 0 0 10 4.5c-.556 0-1.028.194-1.417.583A1.929 1.929 0 0 0 8 6.5v1.333z" fill="#C4C4C4"/>
</svg>
