<svg width="24" height="24" viewBox="0 0 24 24" fill="none" xmlns="http://www.w3.org/2000/svg">
    <path d="M4 18v-1.917c0-.358.087-.687.26-.987.174-.3.414-.54.72-.721A9.697 9.697 0 0 1 10 13c.917 0 1.795.118 2.635.354.84.236 1.636.577 2.386 1.021.305.18.545.42.719.721.173.3.26.63.26.987V18H4zm13.5 0v-1.917c0-.583-.135-1.125-.406-1.625s-.636-.91-1.094-1.229c.542.111 1.066.26 1.573.448.507.188.99.42 1.448.698A1.973 1.973 0 0 1 20 16.083V18h-2.5zM10 12a2.893 2.893 0 0 1-2.125-.875A2.893 2.893 0 0 1 7 9c0-.833.292-1.542.875-2.125A2.893 2.893 0 0 1 10 6c.833 0 1.542.292 2.125.875S13 8.167 13 9s-.292 1.542-.875 2.125A2.893 2.893 0 0 1 10 12zm7-3c0 .833-.292 1.542-.875 2.125A2.893 2.893 0 0 1 14 12c-.111 0-.215-.004-.313-.01a1.836 1.836 0 0 1-.312-.053 4.86 4.86 0 0 0 .823-1.343A4.174 4.174 0 0 0 14.5 9c0-.57-.1-1.1-.302-1.594a4.858 4.858 0 0 0-.823-1.343c.111-.028.215-.046.313-.053.097-.007.2-.01.312-.01.833 0 1.542.292 2.125.875S17 8.167 17 9zM5.5 16.5h9v-.417a.484.484 0 0 0-.23-.416 8.95 8.95 0 0 0-2.062-.865A8.183 8.183 0 0 0 10 14.5c-.75 0-1.486.097-2.208.292a8.154 8.154 0 0 0-2.063.875.453.453 0 0 0-.229.414v.419zm4.504-6c.414 0 .767-.147 1.059-.442.291-.294.437-.649.437-1.062 0-.414-.147-.767-.442-1.059A1.456 1.456 0 0 0 9.996 7.5c-.414 0-.767.147-1.059.442A1.456 1.456 0 0 0 8.5 9.004c0 .414.147.767.442 1.059.294.291.649.437 1.062.437z" fill="#fff"/>
</svg>
