<svg width="78" height="78" viewBox="0 0 78 78" fill="none" xmlns="http://www.w3.org/2000/svg">
<g clip-path="url(#clip0_4009_36542)">
<path d="M39.0049 44.595C43.9752 44.595 48.5689 43.1942 52.2439 40.8145C55.0905 38.9921 58.7957 39.2933 61.2959 41.5676C68.2392 47.8633 72.1853 56.7948 72.1702 66.1781V70.1995C72.1702 74.3564 68.7965 77.7151 64.6395 77.7151H13.3703C9.2133 77.7151 5.83953 74.3564 5.83953 70.1995V66.1781C5.8094 56.8098 9.75551 47.8633 16.6988 41.5827C19.1991 39.3084 22.9192 39.0071 25.7508 40.8296C29.4409 43.1942 34.0195 44.595 39.0049 44.595Z" fill="#C4C4C4"/>
<path d="M39.0089 37.8943C49.3069 37.8943 57.655 29.5461 57.655 19.2482C57.655 8.9502 49.3069 0.602051 39.0089 0.602051C28.7109 0.602051 20.3628 8.9502 20.3628 19.2482C20.3628 29.5461 28.7109 37.8943 39.0089 37.8943Z" fill="#C4C4C4"/>
</g>
<defs>
<clipPath id="clip0_4009_36542">
<rect width="77.1148" height="77.1148" fill="white" transform="translate(0.442383 0.442383)"/>
</clipPath>
</defs>
</svg>
