<svg width="32" height="32" viewBox="0 0 32 32" fill="none" xmlns="http://www.w3.org/2000/svg">
    <path d="M9 18.333a2.247 2.247 0 0 1-1.648-.685A2.247 2.247 0 0 1 6.667 16c0-.642.228-1.191.685-1.648A2.247 2.247 0 0 1 9 13.666c.642 0 1.191.229 1.648.686.457.457.686 1.006.686 1.648 0 .642-.229 1.19-.686 1.648A2.247 2.247 0 0 1 9 18.333zm7 0c-.641 0-1.19-.228-1.648-.685A2.247 2.247 0 0 1 13.667 16c0-.642.229-1.191.685-1.648A2.247 2.247 0 0 1 16 13.666c.642 0 1.191.229 1.648.686.457.457.686 1.006.686 1.648 0 .642-.229 1.19-.686 1.648a2.247 2.247 0 0 1-1.648.685zm7 0c-.641 0-1.19-.228-1.648-.685A2.247 2.247 0 0 1 20.667 16c0-.642.228-1.191.685-1.648A2.247 2.247 0 0 1 23 13.666c.642 0 1.191.229 1.648.686.457.457.686 1.006.686 1.648 0 .642-.229 1.19-.686 1.648a2.247 2.247 0 0 1-1.648.685z" fill="#1A1A1A"/>
</svg>
