<svg width="158" height="56" viewBox="0 0 158 56" fill="none" xmlns="http://www.w3.org/2000/svg">
<g id="Dunreidy-Logo 1">
<g id="Group">
<path id="Vector" d="M53.5085 10.4883C54.4595 10.4883 55.3528 10.6324 56.1596 10.9493C56.9665 11.2375 57.6869 11.6986 58.292 12.3037C58.8972 12.9089 59.3582 13.6581 59.704 14.5802C60.0498 15.5023 60.2227 16.5397 60.2227 17.7788C60.2227 19.0179 60.0787 19.8536 59.8193 20.7469C59.56 21.6402 59.1277 22.4471 58.5802 23.1098C58.0327 23.7726 57.3411 24.2913 56.5054 24.6659C55.6698 25.0405 54.69 25.2422 53.5662 25.2422H47.2266V10.5459H53.5662L53.5085 10.4883ZM53.278 22.4759C53.7391 22.4759 54.2001 22.3894 54.6324 22.2453C55.0646 22.1013 55.468 21.8419 55.8138 21.4961C56.1596 21.1503 56.419 20.6893 56.6495 20.1129C56.8512 19.5654 56.9665 18.8738 56.9665 18.0382C56.9665 17.2025 56.9089 16.6262 56.736 16.021C56.5631 15.4159 56.3613 14.926 56.0155 14.4938C55.6986 14.0615 55.2375 13.7445 54.7188 13.514C54.1713 13.2835 53.5085 13.1682 52.7017 13.1682H50.3964V22.4471H53.278V22.4759Z" fill="#3B3B3C"/>
<path id="Vector_2" d="M68.8135 25.1855V23.687H68.7558C68.3812 24.2922 67.8913 24.7532 67.315 25.0414C66.7099 25.3007 66.1335 25.4448 65.4996 25.4448C64.8656 25.4448 64.0876 25.3296 63.5689 25.1279C63.079 24.9261 62.6756 24.638 62.3874 24.2634C62.0993 23.8887 61.8975 23.4277 61.7823 22.8802C61.667 22.3327 61.6094 21.7275 61.6094 21.0936V14.5523H64.5198V20.5749C64.5198 21.4682 64.6639 22.1021 64.9233 22.5344C65.1826 22.9666 65.6725 23.1683 66.3929 23.1683C67.1133 23.1683 67.7761 22.9378 68.1219 22.4479C68.4677 21.9869 68.6694 21.2088 68.6694 20.1138V14.5234H71.5798V25.1855H68.8135Z" fill="#3B3B3C"/>
<path id="Vector_3" d="M76.0711 14.5518V16.0503H76.1287C76.5033 15.4451 76.9932 14.9841 77.5695 14.6959C78.1458 14.4078 78.751 14.2637 79.3849 14.2637C80.0189 14.2637 80.7969 14.3789 81.3156 14.5807C81.8343 14.7824 82.2089 15.0993 82.4971 15.474C82.7853 15.8486 82.987 16.3096 83.1022 16.8571C83.2175 17.4047 83.2751 18.0098 83.2751 18.6438V25.1851H80.3647V19.1624C80.3647 18.298 80.2206 17.6352 79.9613 17.2029C79.6731 16.7707 79.212 16.569 78.4916 16.569C77.7712 16.569 77.1084 16.7995 76.7626 17.2894C76.4169 17.7504 76.2151 18.5285 76.2151 19.6235V25.2139H73.3047V14.5518H76.0999H76.0711Z" fill="#3B3B3C"/>
<path id="Vector_4" d="M87.7742 14.5518V16.5402H87.803C87.9471 16.2232 88.12 15.9062 88.3505 15.618C88.581 15.3299 88.8404 15.0993 89.1574 14.8976C89.4455 14.6959 89.7913 14.5518 90.1371 14.4366C90.4829 14.3213 90.8287 14.2637 91.2033 14.2637C91.5779 14.2637 91.6068 14.2925 91.8373 14.3789V17.0877C91.6932 17.0877 91.5491 17.03 91.3474 17.03C91.1457 17.03 90.9728 17.0012 90.7999 17.0012C90.2524 17.0012 89.8201 17.0877 89.4455 17.2606C89.0709 17.4335 88.7827 17.6928 88.5522 17.981C88.3217 18.298 88.1488 18.6438 88.0623 19.076C87.9759 19.5082 87.9183 19.9405 87.9183 20.4304V25.2427H85.0078V14.5807H87.7742V14.5518Z" fill="#3B3B3C"/>
<path id="Vector_5" d="M95.6128 22.6492C96.045 23.0815 96.679 23.2832 97.5147 23.2832C98.3503 23.2832 98.6097 23.1391 99.0419 22.8509C99.4742 22.5628 99.7335 22.2458 99.82 21.9288H102.385C101.981 23.1967 101.347 24.1189 100.483 24.6664C99.6183 25.2139 98.6097 25.502 97.3994 25.502C96.1891 25.502 95.8145 25.358 95.1229 25.0986C94.4313 24.8393 93.8838 24.4647 93.4228 23.946C92.9617 23.4273 92.5871 22.8509 92.3277 22.1593C92.0684 21.4678 91.9531 20.7185 91.9531 19.8829C91.9531 19.0472 92.0972 18.3556 92.3566 17.664C92.6159 16.9724 92.9905 16.3961 93.4804 15.8774C93.9703 15.3875 94.5466 14.9841 95.2094 14.6959C95.8721 14.4078 96.6214 14.2637 97.4282 14.2637C98.2351 14.2637 99.1284 14.4366 99.7912 14.7824C100.454 15.1282 101.001 15.5892 101.463 16.1944C101.895 16.7707 102.212 17.4623 102.385 18.2115C102.586 18.9607 102.644 19.7676 102.586 20.5745H94.8924C94.9212 21.5254 95.1806 22.217 95.6128 22.6492ZM98.9267 17.0589C98.5809 16.6842 98.0334 16.4825 97.3418 16.4825C96.6502 16.4825 96.4773 16.569 96.1891 16.7131C95.901 16.8571 95.6416 17.0589 95.4399 17.2894C95.2382 17.5199 95.1229 17.7793 95.0365 18.0386C94.95 18.298 94.9212 18.5285 94.8924 18.7302H99.6471C99.503 17.981 99.2725 17.4335 98.9267 17.03V17.0589Z" fill="#3B3B3C"/>
<path id="Vector_6" d="M103.883 12.9089V10.4883H106.793V12.9089H103.883ZM106.793 14.5514V25.1846H103.883V14.5226H106.793V14.5514Z" fill="#3B3B3C"/>
<path id="Vector_7" d="M116.152 23.8302C115.806 24.4066 115.345 24.81 114.797 25.0694C114.25 25.3287 113.616 25.444 112.924 25.444C112.233 25.444 111.426 25.2999 110.821 24.9829C110.215 24.6659 109.726 24.2625 109.322 23.715C108.919 23.1963 108.631 22.5911 108.429 21.8996C108.227 21.208 108.141 20.4876 108.141 19.7671C108.141 19.0467 108.227 18.3551 108.429 17.6924C108.631 17.0296 108.919 16.4533 109.322 15.9346C109.726 15.4159 110.215 15.0124 110.792 14.7243C111.368 14.4361 112.06 14.2632 112.838 14.2632C113.616 14.2632 114.077 14.4073 114.624 14.6667C115.201 14.926 115.633 15.3294 115.979 15.8481H116.007V10.4883H118.918V25.1846H116.152V23.8302ZM116.036 18.5857C115.95 18.1822 115.806 17.8364 115.604 17.5195C115.402 17.2025 115.143 16.972 114.826 16.7702C114.509 16.5685 114.106 16.4821 113.645 16.4821C113.183 16.4821 112.751 16.5685 112.434 16.7702C112.117 16.972 111.829 17.2025 111.627 17.5195C111.426 17.8364 111.282 18.1822 111.195 18.6145C111.109 19.0179 111.051 19.4502 111.051 19.8824C111.051 20.3147 111.109 20.7181 111.195 21.1215C111.282 21.5249 111.455 21.8996 111.656 22.2165C111.858 22.5335 112.146 22.7929 112.463 22.9946C112.78 23.1963 113.183 23.2827 113.616 23.2827C114.048 23.2827 114.509 23.1963 114.826 22.9946C115.143 22.7929 115.402 22.5335 115.604 22.2165C115.806 21.8996 115.921 21.5249 116.007 21.1215C116.094 20.7181 116.123 20.2858 116.123 19.8536C116.123 19.4213 116.094 18.9891 116.007 18.5857H116.036Z" fill="#3B3B3C"/>
<path id="Vector_8" d="M124.6 28.3841C124.024 28.7587 123.246 28.9316 122.266 28.9316C121.287 28.9316 121.661 28.9316 121.373 28.9028C121.085 28.874 120.768 28.8452 120.48 28.8452V26.4246C120.768 26.4246 121.027 26.4822 121.315 26.511C121.604 26.5399 121.892 26.5399 122.18 26.511C122.555 26.4822 122.843 26.3093 123.044 26.05C123.217 25.7906 123.333 25.5025 123.333 25.1855C123.333 24.8685 123.304 24.7244 123.217 24.5227L119.5 14.5234H122.612L125.033 21.814H125.062L127.396 14.5234H130.421L125.984 26.4822C125.667 27.3467 125.234 27.9807 124.658 28.3265L124.6 28.3841Z" fill="#3B3B3C"/>
</g>
<g id="Group_2">
<path id="Vector_9" d="M58.2681 27.3472V30.0559H50.5165V33.1969H57.6341V35.7039H50.5165V39.306H58.441V42.0147H47.2891V27.3184H58.2969L58.2681 27.3472Z" fill="#3B3B3C"/>
<path id="Vector_10" d="M62.5632 31.4112V32.9097H62.6209C62.9955 32.3045 63.4566 31.8435 64.0617 31.5553C64.6668 31.2671 65.2432 31.123 65.8771 31.123C66.5111 31.123 67.2891 31.2383 67.8078 31.44C68.2977 31.6417 68.7011 31.9587 68.9893 32.3333C69.2774 32.7079 69.4792 33.169 69.5944 33.7165C69.7097 34.264 69.7673 34.8692 69.7673 35.5031V42.0444H66.8569V36.0218C66.8569 35.1285 66.7128 34.4946 66.4535 34.0623C66.1941 33.6301 65.7042 33.4284 64.9838 33.4284C64.2634 33.4284 63.6006 33.6589 63.2548 34.1488C62.909 34.6098 62.7073 35.3879 62.7073 36.4829V42.0733H59.7969V31.44H62.5921L62.5632 31.4112Z" fill="#3B3B3C"/>
<path id="Vector_11" d="M81.5482 42.8215C81.4329 43.369 81.1736 43.8877 80.799 44.3488C80.4243 44.8098 79.848 45.2133 79.1276 45.5591C78.4072 45.9049 77.4275 46.049 76.2172 46.049C75.0069 46.049 75.151 45.9913 74.6323 45.8472C74.1136 45.7032 73.5949 45.5014 73.1626 45.2421C72.7304 44.9827 72.3558 44.6081 72.0388 44.1759C71.7506 43.7436 71.5777 43.2249 71.5201 42.6198H74.4305C74.5746 43.1673 74.834 43.5419 75.2374 43.7725C75.6408 43.9742 76.1019 44.0894 76.6206 44.0894C77.4563 44.0894 78.0326 43.8301 78.4072 43.3402C78.7818 42.8503 78.9547 42.2164 78.9547 41.4671V40.0552H78.9259C78.6089 40.6027 78.1479 41.0349 77.5715 41.2943C76.9952 41.5536 76.3612 41.6977 75.7273 41.6977C75.0933 41.6977 74.2577 41.5536 73.6813 41.2654C73.105 40.9773 72.6439 40.6027 72.2693 40.1128C71.8947 39.6229 71.6354 39.0466 71.4625 38.4126C71.2896 37.7498 71.2031 37.0583 71.2031 36.3378C71.2031 35.6174 71.2896 34.9835 71.4913 34.3495C71.693 33.7156 71.9812 33.1392 72.3558 32.6494C72.7304 32.1595 73.2203 31.7849 73.7966 31.4967C74.3729 31.2085 75.0069 31.0645 75.7561 31.0645C76.5053 31.0645 77.0817 31.1797 77.6003 31.4679C78.119 31.7272 78.5801 32.1595 78.9259 32.7934H78.9547V31.3814H81.7211V41.3519C81.7211 41.7841 81.6635 42.274 81.5482 42.8215ZM77.5427 39.2771C77.8597 39.1042 78.119 38.9025 78.3208 38.6143C78.5225 38.355 78.6666 38.038 78.7818 37.6922C78.8971 37.3464 78.9259 36.9718 78.9259 36.5972C78.9259 36.2226 78.8971 35.7327 78.8106 35.3581C78.7242 34.9547 78.5801 34.6089 78.4072 34.3207C78.2055 34.0037 77.975 33.7732 77.658 33.6003C77.341 33.4274 76.9376 33.3409 76.4765 33.3409C76.0155 33.3409 75.6985 33.4274 75.4103 33.6003C75.1221 33.7732 74.8628 33.9749 74.6611 34.2631C74.4594 34.5512 74.3153 34.8682 74.2288 35.2428C74.1424 35.6174 74.0848 35.992 74.0848 36.3955C74.0848 36.7989 74.1136 37.1735 74.2 37.5481C74.2865 37.9227 74.4017 38.2685 74.6034 38.5567C74.7763 38.8737 75.0357 39.1042 75.3239 39.3059C75.612 39.5076 76.0154 39.5941 76.4477 39.5941C76.8799 39.5941 77.2257 39.5076 77.5427 39.3347V39.2771Z" fill="#3B3B3C"/>
<path id="Vector_12" d="M83.4219 29.7389V27.3184H86.3323V29.7389H83.4219ZM86.3611 31.4103V42.0723H83.4507V31.4391H86.3611V31.4103Z" fill="#3B3B3C"/>
<path id="Vector_13" d="M90.9148 31.4112V32.9097H90.9724C91.3471 32.3045 91.8369 31.8435 92.4133 31.5553C92.9896 31.2671 93.5947 31.123 94.2287 31.123C94.8626 31.123 95.6407 31.2383 96.1594 31.44C96.6781 31.6417 97.0527 31.9587 97.3408 32.3333C97.629 32.7079 97.8307 33.169 97.946 33.7165C98.0613 34.264 98.1189 34.8692 98.1189 35.5031V42.0444H95.2084V36.0218C95.2084 35.1285 95.0644 34.4946 94.805 34.0623C94.5457 33.6301 94.0558 33.4284 93.3354 33.4284C92.615 33.4284 91.9522 33.6589 91.6064 34.1488C91.2606 34.6098 91.0589 35.3879 91.0589 36.4829V42.0733H88.1484V31.44H90.9436L90.9148 31.4112Z" fill="#3B3B3C"/>
<path id="Vector_14" d="M102.964 39.5071C103.397 39.9394 104.031 40.1411 104.866 40.1411C105.702 40.1411 105.961 39.997 106.394 39.7088C106.826 39.4207 107.085 39.1037 107.172 38.7867H109.736C109.333 40.0546 108.699 40.9768 107.834 41.5243C106.97 42.0718 105.961 42.3599 104.751 42.3599C103.541 42.3599 103.166 42.2159 102.474 41.9565C101.783 41.6972 101.235 41.3226 100.774 40.8039C100.313 40.2852 99.9386 39.7088 99.6793 39.0461C99.4199 38.3545 99.3047 37.6053 99.3047 36.7696C99.3047 35.9339 99.4488 35.2423 99.7081 34.5507C99.9675 33.8591 100.342 33.2828 100.832 32.7641C101.322 32.2742 101.898 31.8708 102.561 31.5826C103.224 31.2945 103.973 31.1504 104.78 31.1504C105.587 31.1504 106.48 31.3233 107.143 31.6691C107.806 32.0149 108.353 32.4759 108.814 33.0811C109.275 33.6862 109.563 34.349 109.736 35.0982C109.909 35.8475 109.996 36.6543 109.938 37.4612H102.244C102.273 38.4121 102.532 39.1037 102.964 39.5071ZM106.278 33.8879C105.932 33.5133 105.385 33.3116 104.693 33.3116C104.002 33.3116 103.829 33.3981 103.541 33.5421C103.253 33.6862 102.993 33.8879 102.791 34.1185C102.59 34.349 102.474 34.6084 102.388 34.8677C102.302 35.127 102.273 35.3576 102.244 35.5593H106.999C106.855 34.8101 106.624 34.2626 106.278 33.8591V33.8879Z" fill="#3B3B3C"/>
<path id="Vector_15" d="M114.285 39.5071C114.717 39.9394 115.351 40.1411 116.187 40.1411C117.022 40.1411 117.282 39.997 117.714 39.7088C118.146 39.4207 118.405 39.1037 118.492 38.7867H121.057C120.653 40.0546 120.019 40.9768 119.155 41.5243C118.29 42.0718 117.282 42.3599 116.071 42.3599C114.861 42.3599 114.486 42.2159 113.795 41.9565C113.103 41.6972 112.556 41.3226 112.095 40.8039C111.634 40.2852 111.259 39.7088 111 39.0461C110.74 38.3545 110.625 37.6053 110.625 36.7696C110.625 35.9339 110.769 35.2423 111.028 34.5507C111.288 33.8591 111.662 33.2828 112.152 32.7641C112.642 32.2742 113.218 31.8708 113.881 31.5826C114.544 31.2945 115.293 31.1504 116.1 31.1504C116.907 31.1504 117.8 31.3233 118.463 31.6691C119.126 32.0149 119.673 32.4759 120.134 33.0811C120.595 33.6862 120.884 34.349 121.057 35.0982C121.229 35.8475 121.316 36.6543 121.258 37.4612H113.564C113.593 38.4121 113.852 39.1037 114.285 39.5071ZM117.57 33.8879C117.224 33.5133 116.676 33.3116 115.985 33.3116C115.293 33.3116 115.12 33.3981 114.832 33.5421C114.544 33.6862 114.285 33.8879 114.083 34.1185C113.881 34.349 113.766 34.6084 113.68 34.8677C113.593 35.127 113.564 35.3576 113.535 35.5593H118.29C118.146 34.8101 117.916 34.2626 117.57 33.8591V33.8879Z" fill="#3B3B3C"/>
<path id="Vector_16" d="M125.235 31.4112V33.3995H125.264C125.408 33.0826 125.581 32.7656 125.811 32.4774C126.042 32.1893 126.301 31.9587 126.618 31.757C126.906 31.5553 127.252 31.4112 127.598 31.2959C127.944 31.1807 128.29 31.123 128.664 31.123C129.039 31.123 129.068 31.1519 129.298 31.2383V33.947C129.154 33.947 129.01 33.8894 128.808 33.8894C128.607 33.8894 128.434 33.8606 128.261 33.8606C127.713 33.8606 127.281 33.947 126.906 34.1199C126.532 34.2928 126.244 34.5522 126.013 34.8404C125.783 35.1285 125.61 35.5031 125.523 35.9354C125.437 36.3676 125.379 36.7999 125.379 37.2609V42.0444H122.469V31.4112H125.235Z" fill="#3B3B3C"/>
<path id="Vector_17" d="M130.023 29.7389V27.3184H132.934V29.7389H130.023ZM132.963 31.4103V42.0723H130.052V31.4391H132.963V31.4103Z" fill="#3B3B3C"/>
<path id="Vector_18" d="M137.313 31.4112V32.9097H137.371C137.745 32.3045 138.235 31.8435 138.812 31.5553C139.388 31.2671 139.993 31.123 140.627 31.123C141.261 31.123 142.039 31.2383 142.558 31.44C143.077 31.6417 143.451 31.9587 143.739 32.3333C144.027 32.7079 144.229 33.169 144.344 33.7165C144.46 34.264 144.517 34.8692 144.517 35.5031V42.0444H141.607V36.0218C141.607 35.1285 141.463 34.4946 141.203 34.0623C140.944 33.6301 140.454 33.4284 139.734 33.4284C139.013 33.4284 138.351 33.6589 138.005 34.1488C137.659 34.6098 137.457 35.3879 137.457 36.4829V42.0733H134.547V31.44H137.342L137.313 31.4112Z" fill="#3B3B3C"/>
<path id="Vector_19" d="M156.127 42.8215C156.012 43.369 155.752 43.8877 155.378 44.3488C155.003 44.8098 154.427 45.2133 153.706 45.5591C152.986 45.8761 152.006 46.049 150.767 46.049C149.528 46.049 149.701 45.9913 149.182 45.8472C148.663 45.7032 148.145 45.5014 147.684 45.2421C147.251 44.9827 146.877 44.6081 146.56 44.1759C146.272 43.7436 146.099 43.2249 146.041 42.6198H148.952C149.096 43.1673 149.355 43.5419 149.758 43.7725C150.162 44.003 150.623 44.0894 151.142 44.0894C151.977 44.0894 152.554 43.8301 152.928 43.3402C153.303 42.8503 153.476 42.2164 153.476 41.4671V40.0552H153.447C153.13 40.6027 152.669 41.0349 152.093 41.2943C151.516 41.5536 150.882 41.6977 150.248 41.6977C149.614 41.6977 148.75 41.5536 148.174 41.2654C147.597 40.9773 147.136 40.6027 146.762 40.1128C146.387 39.6229 146.128 39.0466 145.955 38.4126C145.782 37.7498 145.695 37.0583 145.695 36.3378C145.695 35.6174 145.782 34.9835 145.983 34.3495C146.185 33.7156 146.473 33.1392 146.848 32.6494C147.223 32.1595 147.712 31.7849 148.289 31.4967C148.865 31.2085 149.499 31.0645 150.248 31.0645C150.998 31.0645 151.574 31.1797 152.093 31.4679C152.611 31.7272 153.072 32.1595 153.418 32.7934H153.447V31.3814H156.242V41.3519C156.242 41.7841 156.184 42.274 156.069 42.8215H156.127ZM152.121 39.2771C152.438 39.1042 152.698 38.9025 152.899 38.6143C153.101 38.355 153.245 38.038 153.36 37.6922C153.476 37.3464 153.505 36.9718 153.505 36.5972C153.505 36.2226 153.476 35.7327 153.389 35.3581C153.303 34.9547 153.159 34.6089 152.986 34.3207C152.813 34.0325 152.554 33.7732 152.237 33.6003C151.92 33.4274 151.516 33.3409 151.026 33.3409C150.536 33.3409 150.248 33.4274 149.96 33.6003C149.672 33.7732 149.413 33.9749 149.211 34.2631C149.009 34.5512 148.865 34.8682 148.779 35.2428C148.692 35.6174 148.635 35.992 148.635 36.3955C148.635 36.7989 148.663 37.1735 148.75 37.5481C148.836 37.9227 148.952 38.2685 149.153 38.5567C149.326 38.8737 149.586 39.1042 149.874 39.3059C150.162 39.5076 150.565 39.5941 150.998 39.5941C151.43 39.5941 151.776 39.5076 152.093 39.3347L152.121 39.2771Z" fill="#3B3B3C"/>
</g>
<path id="Vector_20" d="M3.63281 14.207V17.7514V21.267L10.0012 17.7514L3.63281 14.207Z" fill="url(#paint0_linear_111_438)"/>
<path id="Vector_21" d="M34.3528 40.6889V33.6289L27.9844 37.1733L34.3528 40.6889Z" fill="url(#paint1_linear_111_438)"/>
<path id="Vector_22" d="M13.0558 17.75L3.63281 23.1675V23.8879V31.0055V35.4721L23.689 23.8879L13.0558 17.75Z" fill="url(#paint2_linear_111_438)"/>
<path id="Vector_23" d="M34.351 17.7509L3.63281 0V12.3046L13.0558 17.7509L23.689 23.8887L34.351 17.7509Z" fill="url(#paint3_linear_111_438)"/>
<path id="Vector_24" d="M14.2656 31.006L24.9277 37.1727L34.3506 31.7265V31.006V23.8884V19.4219L14.2656 31.006Z" fill="url(#paint4_linear_111_438)"/>
<path id="Vector_25" d="M14.266 31.0059L3.63281 37.1726L34.351 54.8946V42.59L24.9281 37.1726L14.266 31.0059Z" fill="url(#paint5_linear_111_438)"/>
</g>
<defs>
<linearGradient id="paint0_linear_111_438" x1="12.8985" y1="15.2876" x2="2.2393" y2="18.3642" gradientUnits="userSpaceOnUse">
<stop stop-color="#00A79D"/>
<stop offset="1" stop-color="#005858"/>
</linearGradient>
<linearGradient id="paint1_linear_111_438" x1="25.9152" y1="39.7656" x2="38.8928" y2="35.5989" gradientUnits="userSpaceOnUse">
<stop stop-color="#00A79D"/>
<stop offset="1" stop-color="#005858"/>
</linearGradient>
<linearGradient id="paint2_linear_111_438" x1="15.7445" y1="24.9079" x2="5.08538" y2="27.9845" gradientUnits="userSpaceOnUse">
<stop stop-color="#00A79D"/>
<stop offset="1" stop-color="#005858"/>
</linearGradient>
<linearGradient id="paint3_linear_111_438" x1="5.98999" y1="11.5208" x2="36.7082" y2="11.5208" gradientUnits="userSpaceOnUse">
<stop stop-color="#005858"/>
<stop offset="1" stop-color="#00A79D"/>
</linearGradient>
<linearGradient id="paint4_linear_111_438" x1="22.9963" y1="30.6807" x2="35.974" y2="26.514" gradientUnits="userSpaceOnUse">
<stop stop-color="#00A79D"/>
<stop offset="1" stop-color="#005858"/>
</linearGradient>
<linearGradient id="paint5_linear_111_438" x1="33.7228" y1="42.9877" x2="3.00462" y2="42.9877" gradientUnits="userSpaceOnUse">
<stop stop-color="#00A79D"/>
<stop offset="1" stop-color="#005858"/>
</linearGradient>
</defs>
</svg>
